<?xml version="1.0" encoding="utf-8"?>
<!-- Generator: Adobe Illustrator 16.0.0, SVG Export Plug-In . SVG Version: 6.00 Build 0)  -->
<!DOCTYPE svg PUBLIC "-//W3C//DTD SVG 1.1//EN" "http://www.w3.org/Graphics/SVG/1.1/DTD/svg11.dtd">
<svg version="1.1" id="Layer_1" xmlns="http://www.w3.org/2000/svg" xmlns:xlink="http://www.w3.org/1999/xlink" x="0px" y="0px"
	 width="566.929px" height="198.425px" viewBox="0 0 566.929 198.425" enable-background="new 0 0 566.929 198.425"
	 xml:space="preserve">
<g>
	<defs>
		<path id="SVGID_1_" d="M243.239,67.795c-1.307,0-2.462,0.337-3.464,1.012c-1.002,0.677-1.634,1.515-1.895,2.517l-8.497,30.46
			c-0.653,2.353-1.319,4.608-1.994,6.765c-0.676,2.157-1.318,4.304-1.928,6.439c-0.349-2.136-0.742-4.291-1.176-6.471
			c-0.437-2.179-0.917-4.424-1.439-6.733l-6.798-30.395c-0.218-1.046-0.85-1.896-1.895-2.55c-1.046-0.654-2.288-0.981-3.726-0.981
			h-16.211l21.048,67.785h15.687c2.223,0,3.66-1.133,4.314-3.4l9.805-33.661c0.479-1.525,0.905-3.04,1.275-4.544
			c0.369-1.503,0.707-3.016,1.013-4.543c0.304,1.483,0.653,2.965,1.046,4.445c0.392,1.482,0.805,2.986,1.242,4.51l9.674,33.793
			c0.348,1.222,0.827,2.093,1.437,2.615c0.61,0.523,1.35,0.785,2.223,0.785h16.472L300.5,67.859h-15.427
			c-1.308,0-2.473,0.327-3.496,0.981c-1.025,0.654-1.646,1.504-1.864,2.55l-7.19,30.395c-0.567,2.397-1.101,4.674-1.601,6.831
			c-0.502,2.156-0.927,4.324-1.275,6.503c-0.567-2.223-1.166-4.421-1.797-6.601c-0.633-2.179-1.253-4.424-1.864-6.733l-8.104-30.46
			c-0.262-1.002-0.906-1.84-1.929-2.517c-1.024-0.675-2.255-1.012-3.693-1.012H243.239z"/>
	</defs>
	<clipPath id="SVGID_2_">
		<use xlink:href="#SVGID_1_"  overflow="visible"/>
	</clipPath>
	
		<linearGradient id="SVGID_3_" gradientUnits="userSpaceOnUse" x1="0" y1="198.4248" x2="1" y2="198.4248" gradientTransform="matrix(0 102.997 102.997 0 -20189.7832 59.4873)">
		<stop  offset="0" style="stop-color:#3EAED9"/>
		<stop  offset="0.5286" style="stop-color:#0D65B1"/>
		<stop  offset="0.8211" style="stop-color:#23478D"/>
		<stop  offset="1" style="stop-color:#29347B"/>
	</linearGradient>
	<rect x="194.216" y="67.795" clip-path="url(#SVGID_2_)" fill="url(#SVGID_3_)" width="106.284" height="67.849"/>
</g>
<g>
	<defs>
		<path id="SVGID_4_" d="M326.317,121.872c-1.265-0.945-1.896-2.582-1.896-4.913c0-1.187,0.294-2.284,0.883-3.295
			c0.589-1.013,1.645-1.913,3.171-2.705c1.525-0.791,3.596-1.45,6.209-1.979c2.613-0.525,5.948-0.791,10.001-0.791v9.283
			c-2.005,2.047-3.985,3.529-5.947,4.444s-4.249,1.372-6.863,1.372C329.432,123.289,327.58,122.816,326.317,121.872 M321.84,69.2
			c-4.991,1.765-9.534,4.456-13.628,8.072l3.66,6.341c0.565,1.002,1.34,1.841,2.32,2.516c0.98,0.676,2.167,1.014,3.563,1.014
			c1.569,0,2.919-0.262,4.053-0.785c1.133-0.523,2.298-1.111,3.496-1.764c1.199-0.654,2.561-1.243,4.085-1.766
			c1.525-0.523,3.486-0.784,5.884-0.784c3.007,0,5.327,0.891,6.961,2.671c1.634,1.782,2.451,4.674,2.451,8.675v2.904
			c-7.757,0-14.185,0.699-19.282,2.099c-5.099,1.399-9.15,3.136-12.158,5.212c-3.007,2.078-5.12,4.385-6.34,6.919
			c-1.222,2.535-1.83,5.007-1.83,7.41c0,3.06,0.479,5.76,1.438,8.1c0.958,2.339,2.319,4.295,4.083,5.868
			c1.767,1.574,3.912,2.766,6.439,3.573c2.527,0.811,5.338,1.214,8.432,1.214c2.31,0,4.413-0.187,6.309-0.556
			c1.896-0.371,3.682-0.936,5.359-1.699c1.678-0.762,3.301-1.688,4.869-2.777c1.569-1.09,3.204-2.354,4.903-3.791l1.438,3.726
			c0.653,1.656,1.471,2.745,2.451,3.268c0.981,0.523,2.428,0.785,4.347,0.785h9.28V93.286c0-3.877-0.609-7.451-1.829-10.719
			c-1.221-3.268-2.974-6.089-5.262-8.464c-2.288-2.376-5.077-4.227-8.367-5.557c-3.29-1.328-6.983-1.993-11.079-1.993
			C332.177,66.553,326.829,67.435,321.84,69.2"/>
	</defs>
	<clipPath id="SVGID_5_">
		<use xlink:href="#SVGID_4_"  overflow="visible"/>
	</clipPath>
	
		<linearGradient id="SVGID_6_" gradientUnits="userSpaceOnUse" x1="0" y1="198.4248" x2="1" y2="198.4248" gradientTransform="matrix(0 102.997 102.997 0 -20102.4082 59.4873)">
		<stop  offset="0" style="stop-color:#3EAED9"/>
		<stop  offset="0.5286" style="stop-color:#0D65B1"/>
		<stop  offset="0.8211" style="stop-color:#23478D"/>
		<stop  offset="1" style="stop-color:#29347B"/>
	</linearGradient>
	<rect x="305.074" y="66.553" clip-path="url(#SVGID_5_)" fill="url(#SVGID_6_)" width="59.35" height="70.136"/>
</g>
<g>
	<defs>
		<path id="SVGID_7_" d="M423.905,67.859c-1.307,0-2.44,0.339-3.398,1.015c-0.959,0.676-1.614,1.514-1.961,2.516l-9.805,30.395
			c-0.784,2.484-1.525,4.901-2.223,7.256c-0.696,2.352-1.285,4.706-1.764,7.059c-0.479-2.353-1.057-4.707-1.731-7.059
			c-0.678-2.354-1.386-4.771-2.125-7.256l-9.412-30.395c-0.351-1.002-1.016-1.84-1.994-2.516c-0.981-0.676-2.191-1.015-3.629-1.015
			H369l26.276,67.785h18.433l26.278-67.785H423.905z"/>
	</defs>
	<clipPath id="SVGID_8_">
		<use xlink:href="#SVGID_7_"  overflow="visible"/>
	</clipPath>
	
		<linearGradient id="SVGID_9_" gradientUnits="userSpaceOnUse" x1="0" y1="198.4248" x2="1" y2="198.4248" gradientTransform="matrix(0 102.997 102.997 0 -20032.6582 59.4873)">
		<stop  offset="0" style="stop-color:#3EAED9"/>
		<stop  offset="0.5286" style="stop-color:#0D65B1"/>
		<stop  offset="0.8211" style="stop-color:#23478D"/>
		<stop  offset="1" style="stop-color:#29347B"/>
	</linearGradient>
	<rect x="369" y="67.859" clip-path="url(#SVGID_8_)" fill="url(#SVGID_9_)" width="70.987" height="67.785"/>
</g>
<g>
	<defs>
		<path id="SVGID_10_" d="M466.199,84.102c2.179-2.198,5.207-3.3,9.086-3.3c2.178,0,4.03,0.371,5.556,1.112
			c1.524,0.741,2.755,1.71,3.692,2.908c0.937,1.199,1.611,2.561,2.027,4.086c0.412,1.525,0.62,3.094,0.62,4.706h-25.297
			C462.581,89.475,464.019,86.304,466.199,84.102 M460.938,69.494c-4.118,1.787-7.628,4.206-10.524,7.255
			c-2.899,3.052-5.121,6.602-6.667,10.655c-1.548,4.052-2.321,8.345-2.321,12.877c0,6.014,0.905,11.285,2.712,15.817
			c1.81,4.533,4.271,8.324,7.388,11.374c3.114,3.051,6.754,5.35,10.916,6.896c4.159,1.546,8.615,2.319,13.366,2.319
			c2.311,0,4.739-0.164,7.289-0.489c2.549-0.327,5.098-0.915,7.646-1.766c2.55-0.85,5.034-2.026,7.453-3.53
			c2.418-1.503,4.673-3.452,6.765-5.85l-5.884-7.255c-0.828-1.177-2.047-1.765-3.659-1.765c-1.221,0-2.387,0.283-3.497,0.849
			c-1.111,0.567-2.331,1.2-3.66,1.896c-1.33,0.697-2.844,1.33-4.543,1.896c-1.7,0.567-3.727,0.85-6.079,0.85
			c-4.402,0-7.998-1.274-10.785-3.823c-2.79-2.55-4.511-6.656-5.165-12.322h39.089c0.916,0,1.667-0.108,2.257-0.326
			c0.586-0.218,1.055-0.61,1.404-1.177c0.348-0.566,0.588-1.328,0.719-2.288c0.131-0.958,0.195-2.2,0.195-3.725
			c0-4.88-0.752-9.25-2.256-13.106c-1.503-3.857-3.594-7.114-6.273-9.772c-2.681-2.657-5.885-4.684-9.608-6.079
			c-3.727-1.394-7.834-2.092-12.322-2.092C469.706,66.814,465.056,67.707,460.938,69.494"/>
	</defs>
	<clipPath id="SVGID_11_">
		<use xlink:href="#SVGID_10_"  overflow="visible"/>
	</clipPath>
	
		<linearGradient id="SVGID_12_" gradientUnits="userSpaceOnUse" x1="0" y1="198.4248" x2="1" y2="198.4248" gradientTransform="matrix(0 102.997 102.997 0 -19963.7832 59.4873)">
		<stop  offset="0" style="stop-color:#3EAED9"/>
		<stop  offset="0.5286" style="stop-color:#0D65B1"/>
		<stop  offset="0.8211" style="stop-color:#23478D"/>
		<stop  offset="1" style="stop-color:#29347B"/>
	</linearGradient>
	<rect x="441.425" y="66.814" clip-path="url(#SVGID_11_)" fill="url(#SVGID_12_)" width="63.927" height="69.875"/>
</g>
<g>
	<defs>
		<path id="SVGID_13_" d="M519.797,120.871c-1.004,0.437-1.863,1.023-2.582,1.764c-0.72,0.743-1.287,1.613-1.699,2.615
			c-0.416,1.003-0.622,2.071-0.622,3.203c0,1.177,0.206,2.255,0.622,3.235c0.412,0.981,0.979,1.842,1.699,2.581
			c0.719,0.742,1.578,1.319,2.582,1.733c1.001,0.414,2.069,0.621,3.203,0.621c1.132,0,2.199-0.207,3.202-0.621
			c1.001-0.414,1.873-0.991,2.615-1.733c0.739-0.739,1.316-1.6,1.731-2.581c0.414-0.98,0.62-2.059,0.62-3.235
			c0-1.132-0.206-2.2-0.62-3.203c-0.415-1.002-0.992-1.872-1.731-2.615c-0.742-0.74-1.614-1.327-2.615-1.764
			c-1.003-0.437-2.07-0.653-3.202-0.653C521.866,120.218,520.798,120.435,519.797,120.871"/>
	</defs>
	<clipPath id="SVGID_14_">
		<use xlink:href="#SVGID_13_"  overflow="visible"/>
	</clipPath>
	
		<linearGradient id="SVGID_15_" gradientUnits="userSpaceOnUse" x1="0" y1="198.4248" x2="1" y2="198.4248" gradientTransform="matrix(0 102.997 102.997 0 -19914.0957 59.4873)">
		<stop  offset="0" style="stop-color:#3EAED9"/>
		<stop  offset="0.5286" style="stop-color:#0D65B1"/>
		<stop  offset="0.8211" style="stop-color:#23478D"/>
		<stop  offset="1" style="stop-color:#29347B"/>
	</linearGradient>
	<rect x="514.894" y="120.218" clip-path="url(#SVGID_14_)" fill="url(#SVGID_15_)" width="16.275" height="16.406"/>
</g>
<g>
	<defs>
		<path id="SVGID_16_" d="M112.251,49.756c-7.748-7.697-18.31-12.099-29.085-12.099c-21.616,0-38.548,16.933-38.548,38.548
			c0,5.286,0.935,10.392,2.861,15.611c0.573,1.556,2.297,2.352,3.852,1.777c1.555-0.573,2.35-2.298,1.777-3.853
			c-1.676-4.542-2.49-8.969-2.49-13.535c0-18.25,14.297-32.548,32.548-32.548c9.384,0,18.588,3.921,25.253,10.756
			c1.018,1.044,2.379,1.619,3.833,1.619c1.452,0,2.813-0.576,3.831-1.619c6.664-6.835,15.868-10.756,25.252-10.756
			c18.251,0,32.548,14.298,32.548,32.548c0,23.041-21.49,42.57-54.021,72.131l-7.604,6.872l-7.426-6.76
			c-14.056-12.746-26.196-23.755-35.338-33.917c-1.107-1.232-3.005-1.332-4.237-0.225c-1.232,1.109-1.332,3.005-0.224,4.237
			c9.347,10.389,21.59,21.493,35.826,34.4l7.551,6.875c1.096,0.996,2.471,1.495,3.847,1.495c1.369,0,2.738-0.493,3.831-1.48
			l7.81-7.058c33.713-30.637,55.985-50.876,55.985-76.572c0-21.615-16.933-38.548-38.548-38.548
			C130.56,37.657,119.999,42.059,112.251,49.756"/>
	</defs>
	<clipPath id="SVGID_17_">
		<use xlink:href="#SVGID_16_"  overflow="visible"/>
	</clipPath>
	
		<linearGradient id="SVGID_18_" gradientUnits="userSpaceOnUse" x1="0" y1="198.4248" x2="1" y2="198.4248" gradientTransform="matrix(0 165.3049 165.3049 0 -32688.3398 27.7998)">
		<stop  offset="0" style="stop-color:#3EAED9"/>
		<stop  offset="0.5286" style="stop-color:#0D65B1"/>
		<stop  offset="0.8211" style="stop-color:#23478D"/>
		<stop  offset="1" style="stop-color:#29347B"/>
	</linearGradient>
	<rect x="44.618" y="37.657" clip-path="url(#SVGID_17_)" fill="url(#SVGID_18_)" width="135.265" height="123.658"/>
</g>
<g>
	<defs>
		<path id="SVGID_19_" d="M109.189,70.692L95.26,109.69l-5.947-20.899c-0.325-1.142-1.292-1.985-2.467-2.151
			c-1.177-0.164-2.338,0.379-2.966,1.387l-7.786,12.515H39.398c-1.656,0-2.999,1.344-2.999,3c0,1.657,1.343,3,2.999,3H77.76
			c1.037,0,2-0.535,2.548-1.416l5.088-8.178l6.654,23.388c0.357,1.256,1.483,2.135,2.787,2.178c1.329,0.044,2.485-0.76,2.924-1.989
			l14.253-39.905l14.253,39.905c0.427,1.198,1.561,1.991,2.824,1.991c0.034,0,0.067-0.001,0.099-0.002
			c1.305-0.043,2.431-0.922,2.788-2.178l6.654-23.388l5.088,8.178c0.548,0.881,1.511,1.416,2.548,1.416h5.337c1.657,0,3-1.343,3-3
			c0-1.656-1.343-3-3-3h-3.671l-7.787-12.515c-0.627-1.009-1.793-1.549-2.965-1.387c-1.175,0.166-2.142,1.009-2.467,2.151
			l-5.947,20.899l-13.929-38.999c-0.426-1.194-1.557-1.991-2.825-1.991C110.747,68.701,109.616,69.498,109.189,70.692"/>
	</defs>
	<clipPath id="SVGID_20_">
		<use xlink:href="#SVGID_19_"  overflow="visible"/>
	</clipPath>
	
		<linearGradient id="SVGID_21_" gradientUnits="userSpaceOnUse" x1="0" y1="198.4248" x2="1" y2="198.4248" gradientTransform="matrix(0 165.3049 165.3049 0 -32705.0898 27.7998)">
		<stop  offset="0" style="stop-color:#3EAED9"/>
		<stop  offset="0.5286" style="stop-color:#0D65B1"/>
		<stop  offset="0.8211" style="stop-color:#23478D"/>
		<stop  offset="1" style="stop-color:#29347B"/>
	</linearGradient>
	<rect x="36.399" y="68.701" clip-path="url(#SVGID_20_)" fill="url(#SVGID_21_)" width="118.206" height="53.857"/>
</g>
</svg>
