<svg version="1.1" id="Layer_1" xmlns="http://www.w3.org/2000/svg" xmlns:xlink="http://www.w3.org/1999/xlink" x="0px" y="0px" viewBox="0 0 23 14" style="enable-background:new 0 0 23 14;" xml:space="preserve"> <g id="Layer_2"> <g id="Outline_Icons"> <circle class="st0" cx="4.5" cy="5" r="2.5"></circle> <path class="st0" d="M6.1,11.5H0.5c0-2.2,1.8-4,4-4c1.3,0,2.5,0.6,3.2,1.6"></path> <circle class="st0" cx="18.5" cy="5" r="2.5"></circle> <path class="st0" d="M15.3,9.1c1.3-1.8,3.8-2.2,5.6-0.9c1,0.8,1.6,2,1.6,3.2h-5.6"></path> <circle class="st0" cx="11.5" cy="4.1" r="3.6"></circle> <path class="st0" d="M17.3,13.5H5.7c-0.1-3.2,2.3-5.9,5.5-6s5.9,2.3,6,5.5C17.3,13.2,17.3,13.3,17.3,13.5L17.3,13.5z"></path> </g> </g> </svg>