<?xml version="1.0" standalone="no"?>
<!DOCTYPE svg PUBLIC "-//W3C//DTD SVG 20010904//EN"
 "http://www.w3.org/TR/2001/REC-SVG-20010904/DTD/svg10.dtd">
<svg version="1.0" xmlns="http://www.w3.org/2000/svg"
 width="1024.000000pt" height="1024.000000pt" viewBox="0 0 1024.000000 1024.000000"
 preserveAspectRatio="xMidYMid meet">
<metadata>
Created by potrace 1.11, written by Peter Selinger 2001-2013
</metadata>
<g transform="translate(0.000000,1024.000000) scale(0.100000,-0.100000)"
fill="#000000" stroke="none">
<path d="M2602 9789 c-680 -49 -1308 -334 -1782 -809 -710 -710 -981 -1751
-724 -2785 157 -633 504 -1269 1075 -1975 547 -678 1221 -1357 2604 -2625 896
-821 1218 -1112 1258 -1133 56 -32 149 -27 205 11 58 39 1454 1316 1986 1817
1792 1685 2573 2706 2886 3776 204 697 164 1438 -110 2065 -97 221 -257 479
-408 659 -98 117 -299 314 -407 400 -715 565 -1677 749 -2570 491 -499 -144
-927 -394 -1310 -763 -98 -94 -123 -108 -191 -108 -64 0 -95 19 -214 134 -471
454 -1091 750 -1736 830 -159 20 -411 27 -562 15z m419 -1179 c205 -20 340
-58 527 -146 299 -141 480 -320 558 -554 18 -52 19 -130 24 -1470 6 -1387 6
-1417 27 -1505 56 -242 136 -406 267 -544 197 -206 482 -301 818 -271 419 37
708 272 832 680 62 203 59 123 65 1665 6 1403 6 1410 27 1465 89 233 269 409
557 545 205 97 345 128 578 129 165 1 166 1 201 -26 74 -56 69 88 65 -1705 -4
-1821 -6 -1876 -73 -2194 -92 -440 -280 -802 -573 -1102 -186 -191 -342 -303
-596 -428 -257 -126 -516 -202 -825 -241 -159 -20 -632 -17 -790 5 -548 76
-1021 301 -1368 648 -294 294 -505 697 -591 1129 -57 289 -54 189 -58 2050 -3
1219 -1 1726 7 1752 13 47 55 97 95 114 37 16 91 17 226 4z"/>
</g>
</svg>
